<?xml version="1.0" encoding="UTF-8"?>
<svg width="183px" height="38px" viewBox="0 0 183 38" version="1.1" xmlns="http://www.w3.org/2000/svg" xmlns:xlink="http://www.w3.org/1999/xlink">
    <title>dweller</title>
    <defs>
        <path d="M0,0.0543014832 L0,37.2711438 L8.27527202,37.2711438 L15.0237961,37.2711438 C17.6150349,37.2711438 20.0302443,36.8731646 22.2694245,36.077206 L22.7465545,35.9005519 C25.1187328,34.986824 27.1834066,33.7040905 28.9405757,32.0523515 C30.6977449,30.4006125 32.0595509,28.4325831 33.025994,26.1482632 C33.992437,23.8639433 34.4756585,21.3687631 34.4756585,18.6627227 C34.4756585,15.9215388 33.992437,13.4175728 33.025994,11.1508246 C32.0595509,8.8840764 30.688959,6.91604697 28.9142182,5.24673629 C27.1394773,3.57742561 25.0660178,2.29469213 22.6938394,1.39853587 C20.3216611,0.502379614 17.7298366,0.0543014832 14.918366,0.0543014832 L14.918366,0.0543014832 L8.27626664,0.0543014832 L5.32422249,0.0543014832 L0,0.0543014832 Z M8.27527202,7.27626664 L14.8129358,7.27626664 C17.0621123,7.27626664 19.0213559,7.73313062 20.6906666,8.64685857 C22.3599773,9.56058652 23.6602825,10.8608917 24.5915821,12.5477741 C25.5228817,14.2346564 25.9885316,16.2554009 25.9885316,18.6100076 C25.9885316,20.9646142 25.5316676,23.0029304 24.6179396,24.7249562 C23.7042117,26.4469819 22.4039065,27.756073 20.7170241,28.6522292 C19.0301418,29.5483855 17.0621123,29.9964636 14.8129358,29.9964636 L14.8129358,29.9964636 L8.27527202,29.9964636 L8.27527202,7.27626664 Z M51.4015269,37.2711438 L56.4528713,22.5109231 L61.417391,37.2711438 L68.0067753,37.2711438 L76.8629077,11.6516178 L68.9556466,11.6516178 L64.541154,26.4933977 L59.6777935,11.6516178 L53.1411244,11.6516178 L48.3029219,26.5441236 L43.9159864,11.6516178 L36.0087252,11.6516178 L44.8648577,37.2711438 L51.4015269,37.2711438 Z M91.6801732,37.071752 C93.8239195,37.071752 95.7919489,36.7134843 97.5842615,35.9969488 C99.376574,35.2804134 100.905311,34.2056103 102.170473,32.7725394 L102.170473,32.7725394 L97.7424067,28.4733268 C96.9692523,29.3263452 96.073096,29.9661089 95.0539379,30.3926181 C94.0347798,30.8191273 92.8926199,31.0323819 91.6274581,31.0323819 C90.2568662,31.0323819 89.070777,30.7508858 88.0691906,30.1878937 C87.0676042,29.6249016 86.2944498,28.8230643 85.7497273,27.7823819 C85.6135467,27.5222113 85.4943887,27.2487123 85.3922532,26.9618849 L85.2959739,26.6732971 L103.646495,26.6308071 C103.76364,26.0905621 103.850278,25.6036308 103.90641,25.1700131 L103.936428,24.9162402 C103.989143,24.4214895 104.015501,23.9523294 104.015501,23.5087599 C104.015501,21.0861877 103.461992,18.9365814 102.354976,17.059941 C101.247959,15.1833005 99.7280078,13.7161089 97.7951218,12.6583662 C95.8622357,11.6006234 93.6306309,11.071752 91.1003073,11.071752 C88.499697,11.071752 86.1626621,11.6347441 84.0892025,12.7607284 C82.0157429,13.8867126 80.3727898,15.4306759 79.160343,17.3926181 C77.9478963,19.3545604 77.341673,21.5809383 77.341673,24.071752 C77.341673,26.5625656 77.9566822,28.7974738 79.1867006,30.7764764 C80.416719,32.755479 82.1123872,34.2994423 84.2737052,35.4083662 C86.4350233,36.51729 88.9038459,37.071752 91.6801732,37.071752 Z M85.2979631,21.6048206 L85.362601,21.3940224 C85.4581471,21.1018931 85.5696175,20.8240407 85.6970122,20.5604653 C86.2065913,19.5061638 86.9270306,18.6890802 87.8583303,18.1092144 C88.7896299,17.5293486 89.8878606,17.2394157 91.1530224,17.2394157 C92.3478974,17.2394157 93.3582697,17.4942052 94.1841392,18.0037842 C95.0100087,18.5133633 95.6338037,19.2513743 96.0555243,20.2178173 C96.2088773,20.5692512 96.3366714,20.9543762 96.4389067,21.3731924 L96.4835051,21.5729926 L85.2979631,21.6048206 Z M115.564431,37.2711438 L115.564431,0.27114384 L107.499025,0.27114384 L107.499025,37.2711438 L115.564431,37.2711438 Z M128.905675,37.2711438 L128.905675,0.27114384 L120.840268,0.27114384 L120.840268,37.2711438 L128.905675,37.2711438 Z M146.83313,37.071752 C148.976876,37.071752 150.944905,36.7134843 152.737218,35.9969488 C154.52953,35.2804134 156.058268,34.2056103 157.323429,32.7725394 L157.323429,32.7725394 L152.895363,28.4733268 C152.122209,29.3263452 151.226052,29.9661089 150.206894,30.3926181 C149.187736,30.8191273 148.045576,31.0323819 146.780414,31.0323819 C145.409823,31.0323819 144.223733,30.7508858 143.222147,30.1878937 C142.220561,29.6249016 141.447406,28.8230643 140.902684,27.7823819 C140.766503,27.5222113 140.647345,27.2487123 140.54521,26.9618849 L140.448872,26.6732971 L158.799451,26.6308071 C158.916596,26.0905621 159.003234,25.6036308 159.059366,25.1700131 L159.089384,24.9162402 C159.142099,24.4214895 159.168457,23.9523294 159.168457,23.5087599 C159.168457,21.0861877 158.614949,18.9365814 157.507932,17.059941 C156.400915,15.1833005 154.880964,13.7161089 152.948078,12.6583662 C151.015192,11.6006234 148.783587,11.071752 146.253264,11.071752 C143.652653,11.071752 141.315618,11.6347441 139.242159,12.7607284 C137.168699,13.8867126 135.525746,15.4306759 134.313299,17.3926181 C133.100853,19.3545604 132.494629,21.5809383 132.494629,24.071752 C132.494629,26.5625656 133.109639,28.7974738 134.339657,30.7764764 C135.569675,32.755479 137.265344,34.2994423 139.426662,35.4083662 C141.58798,36.51729 144.056802,37.071752 146.83313,37.071752 Z M140.451855,21.6048206 L140.515557,21.3940224 C140.611103,21.1018931 140.722574,20.8240407 140.849969,20.5604653 C141.359548,19.5061638 142.079987,18.6890802 143.011287,18.1092144 C143.942586,17.5293486 145.040817,17.2394157 146.305979,17.2394157 C147.500854,17.2394157 148.511226,17.4942052 149.337096,18.0037842 C150.162965,18.5133633 150.78676,19.2513743 151.208481,20.2178173 C151.361834,20.5692512 151.489628,20.9543762 151.591863,21.3731924 L151.636403,21.5729926 L140.451855,21.6048206 Z M170.717388,11.6516178 L162.651981,11.6516178 L162.651981,37.2711438 L170.717388,37.2711438 L170.717388,23.196219 C170.717388,21.54448 171.112751,20.3056758 171.903477,19.4798063 C172.694203,18.6539368 173.75729,18.2410021 175.092739,18.2410021 C175.760463,18.2410021 176.357901,18.3464322 176.885051,18.5572925 C177.412202,18.7681528 177.851494,19.0668716 178.202928,19.4534488 L178.202928,19.4534488 L183,13.3912152 C182.297132,12.6180608 181.480049,12.0469809 180.548749,11.6779753 C179.617449,11.3089698 178.53679,11.1244671 177.306772,11.1244671 C174.495301,11.1244671 172.29884,11.9503366 170.717388,13.6020755 L170.717388,13.6020755 L170.717388,11.6516178 Z" id="path-1"></path>
    </defs>
    <g id="Page-1" stroke="none" stroke-width="1" fill="none" fill-rule="evenodd">
        <g id="dweller">
            <g id="Mask" fill="#231F20" fill-rule="nonzero">
                <path d="M0,0.0543014832 L0,37.2711438 L8.27527202,37.2711438 L15.0237961,37.2711438 C17.6150349,37.2711438 20.0302443,36.8731646 22.2694245,36.077206 L22.7465545,35.9005519 C25.1187328,34.986824 27.1834066,33.7040905 28.9405757,32.0523515 C30.6977449,30.4006125 32.0595509,28.4325831 33.025994,26.1482632 C33.992437,23.8639433 34.4756585,21.3687631 34.4756585,18.6627227 C34.4756585,15.9215388 33.992437,13.4175728 33.025994,11.1508246 C32.0595509,8.8840764 30.688959,6.91604697 28.9142182,5.24673629 C27.1394773,3.57742561 25.0660178,2.29469213 22.6938394,1.39853587 C20.3216611,0.502379614 17.7298366,0.0543014832 14.918366,0.0543014832 L14.918366,0.0543014832 L8.27626664,0.0543014832 L5.32422249,0.0543014832 L0,0.0543014832 Z M8.27527202,7.27626664 L14.8129358,7.27626664 C17.0621123,7.27626664 19.0213559,7.73313062 20.6906666,8.64685857 C22.3599773,9.56058652 23.6602825,10.8608917 24.5915821,12.5477741 C25.5228817,14.2346564 25.9885316,16.2554009 25.9885316,18.6100076 C25.9885316,20.9646142 25.5316676,23.0029304 24.6179396,24.7249562 C23.7042117,26.4469819 22.4039065,27.756073 20.7170241,28.6522292 C19.0301418,29.5483855 17.0621123,29.9964636 14.8129358,29.9964636 L14.8129358,29.9964636 L8.27527202,29.9964636 L8.27527202,7.27626664 Z M51.4015269,37.2711438 L56.4528713,22.5109231 L61.417391,37.2711438 L68.0067753,37.2711438 L76.8629077,11.6516178 L68.9556466,11.6516178 L64.541154,26.4933977 L59.6777935,11.6516178 L53.1411244,11.6516178 L48.3029219,26.5441236 L43.9159864,11.6516178 L36.0087252,11.6516178 L44.8648577,37.2711438 L51.4015269,37.2711438 Z M91.6801732,37.071752 C93.8239195,37.071752 95.7919489,36.7134843 97.5842615,35.9969488 C99.376574,35.2804134 100.905311,34.2056103 102.170473,32.7725394 L102.170473,32.7725394 L97.7424067,28.4733268 C96.9692523,29.3263452 96.073096,29.9661089 95.0539379,30.3926181 C94.0347798,30.8191273 92.8926199,31.0323819 91.6274581,31.0323819 C90.2568662,31.0323819 89.070777,30.7508858 88.0691906,30.1878937 C87.0676042,29.6249016 86.2944498,28.8230643 85.7497273,27.7823819 C85.6135467,27.5222113 85.4943887,27.2487123 85.3922532,26.9618849 L85.2959739,26.6732971 L103.646495,26.6308071 C103.76364,26.0905621 103.850278,25.6036308 103.90641,25.1700131 L103.936428,24.9162402 C103.989143,24.4214895 104.015501,23.9523294 104.015501,23.5087599 C104.015501,21.0861877 103.461992,18.9365814 102.354976,17.059941 C101.247959,15.1833005 99.7280078,13.7161089 97.7951218,12.6583662 C95.8622357,11.6006234 93.6306309,11.071752 91.1003073,11.071752 C88.499697,11.071752 86.1626621,11.6347441 84.0892025,12.7607284 C82.0157429,13.8867126 80.3727898,15.4306759 79.160343,17.3926181 C77.9478963,19.3545604 77.341673,21.5809383 77.341673,24.071752 C77.341673,26.5625656 77.9566822,28.7974738 79.1867006,30.7764764 C80.416719,32.755479 82.1123872,34.2994423 84.2737052,35.4083662 C86.4350233,36.51729 88.9038459,37.071752 91.6801732,37.071752 Z M85.2979631,21.6048206 L85.362601,21.3940224 C85.4581471,21.1018931 85.5696175,20.8240407 85.6970122,20.5604653 C86.2065913,19.5061638 86.9270306,18.6890802 87.8583303,18.1092144 C88.7896299,17.5293486 89.8878606,17.2394157 91.1530224,17.2394157 C92.3478974,17.2394157 93.3582697,17.4942052 94.1841392,18.0037842 C95.0100087,18.5133633 95.6338037,19.2513743 96.0555243,20.2178173 C96.2088773,20.5692512 96.3366714,20.9543762 96.4389067,21.3731924 L96.4835051,21.5729926 L85.2979631,21.6048206 Z M115.564431,37.2711438 L115.564431,0.27114384 L107.499025,0.27114384 L107.499025,37.2711438 L115.564431,37.2711438 Z M128.905675,37.2711438 L128.905675,0.27114384 L120.840268,0.27114384 L120.840268,37.2711438 L128.905675,37.2711438 Z M146.83313,37.071752 C148.976876,37.071752 150.944905,36.7134843 152.737218,35.9969488 C154.52953,35.2804134 156.058268,34.2056103 157.323429,32.7725394 L157.323429,32.7725394 L152.895363,28.4733268 C152.122209,29.3263452 151.226052,29.9661089 150.206894,30.3926181 C149.187736,30.8191273 148.045576,31.0323819 146.780414,31.0323819 C145.409823,31.0323819 144.223733,30.7508858 143.222147,30.1878937 C142.220561,29.6249016 141.447406,28.8230643 140.902684,27.7823819 C140.766503,27.5222113 140.647345,27.2487123 140.54521,26.9618849 L140.448872,26.6732971 L158.799451,26.6308071 C158.916596,26.0905621 159.003234,25.6036308 159.059366,25.1700131 L159.089384,24.9162402 C159.142099,24.4214895 159.168457,23.9523294 159.168457,23.5087599 C159.168457,21.0861877 158.614949,18.9365814 157.507932,17.059941 C156.400915,15.1833005 154.880964,13.7161089 152.948078,12.6583662 C151.015192,11.6006234 148.783587,11.071752 146.253264,11.071752 C143.652653,11.071752 141.315618,11.6347441 139.242159,12.7607284 C137.168699,13.8867126 135.525746,15.4306759 134.313299,17.3926181 C133.100853,19.3545604 132.494629,21.5809383 132.494629,24.071752 C132.494629,26.5625656 133.109639,28.7974738 134.339657,30.7764764 C135.569675,32.755479 137.265344,34.2994423 139.426662,35.4083662 C141.58798,36.51729 144.056802,37.071752 146.83313,37.071752 Z M140.451855,21.6048206 L140.515557,21.3940224 C140.611103,21.1018931 140.722574,20.8240407 140.849969,20.5604653 C141.359548,19.5061638 142.079987,18.6890802 143.011287,18.1092144 C143.942586,17.5293486 145.040817,17.2394157 146.305979,17.2394157 C147.500854,17.2394157 148.511226,17.4942052 149.337096,18.0037842 C150.162965,18.5133633 150.78676,19.2513743 151.208481,20.2178173 C151.361834,20.5692512 151.489628,20.9543762 151.591863,21.3731924 L151.636403,21.5729926 L140.451855,21.6048206 Z M170.717388,11.6516178 L162.651981,11.6516178 L162.651981,37.2711438 L170.717388,37.2711438 L170.717388,23.196219 C170.717388,21.54448 171.112751,20.3056758 171.903477,19.4798063 C172.694203,18.6539368 173.75729,18.2410021 175.092739,18.2410021 C175.760463,18.2410021 176.357901,18.3464322 176.885051,18.5572925 C177.412202,18.7681528 177.851494,19.0668716 178.202928,19.4534488 L178.202928,19.4534488 L183,13.3912152 C182.297132,12.6180608 181.480049,12.0469809 180.548749,11.6779753 C179.617449,11.3089698 178.53679,11.1244671 177.306772,11.1244671 C174.495301,11.1244671 172.29884,11.9503366 170.717388,13.6020755 L170.717388,13.6020755 L170.717388,11.6516178 Z" id="path-1"></path>
            </g>
            <g id="Clipped">
                <mask id="mask-2" fill="white">
                    <use xlink:href="#path-1"></use>
                </mask>
                <g id="path-1"></g>
                <rect id="Rectangle" fill="#FFC602" fill-rule="nonzero" mask="url(#mask-2)" x="0" y="0" width="8.3" height="38"></rect>
            </g>
        </g>
    </g>
</svg>