<!DOCTYPE svg PUBLIC "-//W3C//DTD SVG 1.1//EN" "http://www.w3.org/Graphics/SVG/1.1/DTD/svg11.dtd">
<!-- Uploaded to: SVG Repo, www.svgrepo.com, Transformed by: SVG Repo Mixer Tools -->
<svg fill="#545454" height="800px" width="800px" version="1.1" id="Layer_1" xmlns="http://www.w3.org/2000/svg" xmlns:xlink="http://www.w3.org/1999/xlink" viewBox="0 0 512 512" xml:space="preserve" stroke="#545454">
<g id="SVGRepo_bgCarrier" stroke-width="0"/>
<g id="SVGRepo_tracerCarrier" stroke-linecap="round" stroke-linejoin="round"/>
<g id="SVGRepo_iconCarrier"> <g> <g> <path d="M435.574,230.881h-17.102c-13.851,0-25.119,11.268-25.119,25.119v8.551c0,4.427,3.588,8.017,8.017,8.017h17.637v52.376 h-19.49c-3.354-9.93-12.752-17.102-23.8-17.102h-34.205c-4.428,0-8.017,3.589-8.017,8.017s3.588,8.017,8.017,8.017h34.205 c5.01,0,9.086,4.076,9.086,9.086c0,5.01-4.076,9.086-9.086,9.086H136.284c-5.01,0-9.086-4.076-9.086-9.086 c0-5.01,4.076-9.086,9.086-9.086h162.472c4.428,0,8.017-3.589,8.017-8.017s-3.588-8.017-8.017-8.017h-17.637v-35.273h55.091 c21.784,0,39.845-16.346,42.013-38.021l18.813-188.125c1.184-11.847-2.718-23.704-10.707-32.532S366.929,0,355.023,0H156.977 c-11.906,0-23.316,5.062-31.305,13.89s-11.891,20.685-10.707,32.532l3.936,39.352c0.414,4.135,3.898,7.219,7.968,7.219 c0.266,0,0.537-0.013,0.807-0.041c4.406-0.44,7.62-4.369,7.18-8.775l-3.936-39.352c-0.745-7.457,1.613-14.622,6.641-20.179 c5.028-5.556,11.924-8.615,19.416-8.615h48.251v86.046c0,4.427,3.588,8.017,8.017,8.017h85.511c4.428,0,8.017-3.589,8.017-8.017 V16.033h48.251c7.493,0,14.388,3.059,19.416,8.615s7.386,12.722,6.641,20.179l-18.813,188.125 c-1.345,13.443-12.547,23.582-26.059,23.582H175.79c-13.512,0-24.714-10.138-26.059-23.582l-11.456-114.568 c-0.44-4.405-4.353-7.615-8.775-7.18c-4.406,0.44-7.62,4.369-7.18,8.775l11.456,114.568c2.168,21.675,20.229,38.021,42.013,38.021 h55.091v35.273h-94.597c-11.048,0-20.446,7.172-23.8,17.102h-19.49v-52.376h17.637c4.428,0,8.017-3.589,8.017-8.017V256 c0-13.851-11.268-25.119-25.119-25.119H76.426c-13.851,0-25.119,11.268-25.119,25.119v8.551c0,4.427,3.588,8.017,8.017,8.017 H76.96v60.392c0,4.427,3.588,8.017,8.017,8.017h27.507c3.354,9.93,12.752,17.102,23.8,17.102h94.597v43.29 c0,4.427,3.588,8.017,8.017,8.017h9.086v18.171h-94.597c-4.428,0-8.017,3.589-8.017,8.017v25.653c0,0.615,0.076,1.21,0.206,1.784 c-10.037,3.293-17.309,12.745-17.309,23.87c0,13.851,11.268,25.119,25.119,25.119s25.119-11.268,25.119-25.119 c0-11.124-7.272-20.576-17.309-23.87c0.13-0.574,0.206-1.169,0.206-1.784v-17.637h86.58v17.637c0,0.615,0.076,1.21,0.206,1.784 c-10.037,3.293-17.309,12.745-17.309,23.87C230.881,500.732,242.149,512,256,512s25.119-11.268,25.119-25.119 c0-11.124-7.272-20.576-17.309-23.87c0.13-0.574,0.206-1.169,0.206-1.784v-17.637h86.58v17.637c0,0.615,0.076,1.21,0.206,1.784 c-10.037,3.293-17.309,12.745-17.309,23.87c0,13.851,11.268,25.119,25.119,25.119c13.851,0,25.119-11.268,25.119-25.119 c0-11.124-7.272-20.576-17.309-23.87c0.13-0.574,0.206-1.169,0.206-1.784v-25.653c0-4.427-3.588-8.017-8.017-8.017h-94.597 v-18.171h9.086c4.428,0,8.017-3.589,8.017-8.017v-9.112c0.177,0.012,0.354,0.027,0.534,0.027h34.739v17.637 c0,4.427,3.588,8.017,8.017,8.017h43.29v0.534c0,4.427,3.588,8.017,8.017,8.017c4.428,0,8.017-3.589,8.017-8.017V401.37 c0-4.427-3.588-8.017-8.017-8.017c-4.428,0-8.017,3.589-8.017,8.017v0.534h-35.273v-17.637c0-4.427-3.588-8.017-8.017-8.017 h-42.756c-0.181,0-0.357,0.015-0.534,0.027v-18.198h94.597c11.048,0,20.446-7.172,23.8-17.102h27.507 c4.428,0,8.017-3.589,8.017-8.017v-60.392h17.637c4.428,0,8.017-3.589,8.017-8.017V256 C460.693,242.149,449.425,230.881,435.574,230.881z M290.739,94.063h-9.086h-60.392V16.033h69.478V94.063z M246.914,272.568 h18.171v35.273h-18.171V272.568z M67.34,256.534V256c0-5.01,4.076-9.086,9.086-9.086h17.102c5.01,0,9.086,4.076,9.086,9.086v0.534 H67.34z M162.472,486.881c0,5.01-4.076,9.086-9.086,9.086s-9.086-4.076-9.086-9.086c0-5.01,4.076-9.086,9.086-9.086 S162.472,481.871,162.472,486.881z M358.614,477.795c5.01,0,9.086,4.076,9.086,9.086c0,5.01-4.076,9.086-9.086,9.086 c-5.01,0-9.086-4.076-9.086-9.086C349.528,481.871,353.604,477.795,358.614,477.795z M265.086,486.881 c0,5.01-4.076,9.086-9.086,9.086s-9.086-4.076-9.086-9.086c0-5.01,4.076-9.086,9.086-9.086S265.086,481.871,265.086,486.881z M265.086,393.353H256h-9.086v-35.273h18.171V393.353z M444.66,256.534h-35.273V256c0-5.01,4.076-9.086,9.086-9.086h17.102 c5.01,0,9.086,4.076,9.086,9.086V256.534z"/> </g> </g> <g> <g> <path d="M298.756,145.37h-85.511c-4.428,0-8.017,3.589-8.017,8.017s3.588,8.017,8.017,8.017h85.511 c4.428,0,8.017-3.589,8.017-8.017S303.184,145.37,298.756,145.37z"/> </g> </g> <g> <g> <path d="M298.756,179.574h-85.511c-4.428,0-8.017,3.589-8.017,8.017s3.588,8.017,8.017,8.017h85.511 c4.428,0,8.017-3.589,8.017-8.017S303.184,179.574,298.756,179.574z"/> </g> </g> <g> <g> <path d="M298.756,213.779h-85.511c-4.428,0-8.017,3.589-8.017,8.017s3.588,8.017,8.017,8.017h85.511 c4.428,0,8.017-3.589,8.017-8.017S303.184,213.779,298.756,213.779z"/> </g> </g> </g>
</svg>