<?xml version="1.0" encoding="UTF-8"?>
<svg width="163px" height="163px" viewBox="0 0 163 163" version="1.1" xmlns="http://www.w3.org/2000/svg" xmlns:xlink="http://www.w3.org/1999/xlink">
    <title>Private-office-grey</title>
    <g id="Page-1" stroke="none" stroke-width="1" fill="none" fill-rule="evenodd">
        <g id="Private-office-grey" fill="#545454" fill-rule="nonzero">
            <polygon id="Path" points="66.1719512 86.5927949 61.1714805 86.5927949 61.1714805 94.2805371 53.4375762 94.2805371 53.4375762 73.8125762 61.1714805 73.8125762 61.1714805 76.4046582 66.1719512 76.4046582 66.1719512 68.8121055 48.4371055 68.8121055 48.4371055 99.2810078 66.1719512 99.2810078"></polygon>
            <rect id="Rectangle" x="56.03125" y="78.9996055" width="17.828125" height="5.0004707"></rect>
            <path d="M33.0628945,17.8746055 L7.68742383,17.8746055 L7.68742383,58.5313262 L33.0628945,58.5313262 L33.0628945,17.8746055 Z M28.0624238,53.5308555 L12.6875762,53.5308555 L12.6875762,22.8750762 L28.0621055,22.8750762 L28.0621055,53.5308555 L28.0624238,53.5308555 Z" id="Shape"></path>
            <rect id="Rectangle" x="15.2809316" y="45.8902305" width="10.1875" height="5.0004707"></rect>
            <rect id="Rectangle" x="17.8749238" y="28.0153066" width="5.0004707" height="12.734375"></rect>
            <rect id="Rectangle" x="10.1875" y="61.1714805" width="5.09375" height="5.0004707"></rect>
            <rect id="Rectangle" x="17.828125" y="61.1714805" width="5.09375" height="5.0004707"></rect>
            <rect id="Rectangle" x="25.46875" y="61.1714805" width="5.09375" height="5.0004707"></rect>
            <path d="M162.999682,150.242385 L162.999682,145.241914 L124.749758,145.241914 L124.749758,0.0467988281 L38.2496055,0.0467988281 L38.2496055,145.242232 L0,145.242232 L0,150.242703 L38.2496055,150.242703 L38.2496055,157.95273 L0,157.95273 L0,162.953201 L162.999682,162.953201 L162.999682,157.95273 L124.749758,157.95273 L124.749758,150.242385 L162.999682,150.242385 Z M119.749605,157.952094 L43.2500762,157.952094 L43.2500762,5.04695117 L119.749605,5.04695117 L119.749605,157.952094 L119.749605,157.952094 Z" id="Shape"></path>
        </g>
    </g>
</svg>