<!DOCTYPE svg PUBLIC "-//W3C//DTD SVG 1.1//EN" "http://www.w3.org/Graphics/SVG/1.1/DTD/svg11.dtd">
<!-- Uploaded to: SVG Repo, www.svgrepo.com, Transformed by: SVG Repo Mixer Tools -->
<svg fill="#545454" height="800px" width="800px" version="1.1" id="Layer_1" xmlns="http://www.w3.org/2000/svg" xmlns:xlink="http://www.w3.org/1999/xlink" viewBox="0 0 496 496" xml:space="preserve" stroke="#545454">
<g id="SVGRepo_bgCarrier" stroke-width="0"/>
<g id="SVGRepo_tracerCarrier" stroke-linecap="round" stroke-linejoin="round"/>
<g id="SVGRepo_iconCarrier"> <g> <g> <g> <path d="M480,480V192H352V0H112v128H16v352H0v16h496v-16H480z M240,480H32V144h208V480z M272,480h-16V128H128V16h208v176h-64V480 z M416,480h-80V368h80V480z M464,480h-32V368h16v-16H304v16h16v112h-32V208h176V480z"/> <path d="M96,160H48v48h48V160z M80,192H64v-16h16V192z"/> <path d="M160,160h-48v48h48V160z M144,192h-16v-16h16V192z"/> <path d="M368,224h-64v48h64V224z M352,256h-32v-16h32V256z"/> <path d="M448,224h-64v48h64V224z M432,256h-32v-16h32V256z"/> <path d="M368,288h-64v48h64V288z M352,320h-32v-16h32V320z"/> <path d="M448,288h-64v48h64V288z M432,320h-32v-16h32V320z"/> <path d="M96,224H48v48h48V224z M80,256H64v-16h16V256z"/> <path d="M160,224h-48v48h48V224z M144,256h-16v-16h16V256z"/> <path d="M96,288H48v48h48V288z M80,320H64v-16h16V320z"/> <path d="M160,288h-48v48h48V288z M144,320h-16v-16h16V320z"/> <path d="M96,352H48v48h48V352z M80,384H64v-16h16V384z"/> <path d="M160,352h-48v48h48V352z M144,384h-16v-16h16V384z"/> <path d="M96,416H48v48h48V416z M80,448H64v-16h16V448z"/> <path d="M160,416h-48v48h48V416z M144,448h-16v-16h16V448z"/> <path d="M224,160h-48v48h48V160z M208,192h-16v-16h16V192z"/> <path d="M224,224h-48v48h48V224z M208,256h-16v-16h16V256z"/> <path d="M224,288h-48v48h48V288z M208,320h-16v-16h16V320z"/> <path d="M224,352h-48v48h48V352z M208,384h-16v-16h16V384z"/> <path d="M144,112h176V32H144V112z M160,48h144v48H160V48z"/> <path d="M224,416h-48v48h48V416z M208,448h-16v-16h16V448z"/> </g> </g> </g> </g>
</svg>