<?xml version="1.0" encoding="UTF-8"?>
<svg width="163px" height="163px" viewBox="0 0 163 163" version="1.1" xmlns="http://www.w3.org/2000/svg" xmlns:xlink="http://www.w3.org/1999/xlink">
    <title>Own-desk-grey</title>
    <g id="Page-1" stroke="none" stroke-width="1" fill="none" fill-rule="evenodd">
        <g id="Own-desk-grey" fill="#545454" fill-rule="nonzero">
            <path d="M162.682261,159.454353 L149.803355,97.6350936 L151.836883,97.6350936 C153.192674,97.6350936 154.277117,96.5506511 154.548148,95.4658908 L156.898144,81.3668674 L159.970996,81.3668674 C161.597819,81.3668674 162.682261,80.282425 162.682261,78.6556023 L162.682261,67.8102242 C162.682261,66.1834016 161.597819,65.0989591 159.970996,65.0989591 L124.45193,65.0989591 L124.45193,63.2011053 C124.45193,59.6764288 121.740665,56.964846 118.215671,56.964846 L116.588848,56.964846 L116.588848,54.2535809 L143.702452,54.2535809 C146.685066,54.2535809 149.1253,51.813347 149.1253,48.8307329 L149.1253,40.6966199 L149.1253,5.4485848 C149.1253,2.46597076 146.685066,0.02573684 143.702452,0.02573684 L73.2070175,0.02573684 C70.2244035,0.02573684 67.7841696,2.46597076 67.7841696,5.4485848 L67.7841696,40.6963021 L67.7841696,48.8304152 C67.7841696,51.8130292 70.2244035,54.2532632 73.2070175,54.2532632 L100.320622,54.2532632 L100.320622,56.9645283 L98.422768,56.9645283 C94.8980916,56.9645283 92.1865088,59.6757934 92.1865088,63.2007875 L92.1865088,65.0986413 L48.8046784,65.0986413 L48.8046784,59.6757934 L51.5159435,59.6757934 C53.1427661,59.6757934 54.2272086,58.5913509 54.2272086,56.9645283 L54.2272086,46.1191501 C54.2272086,44.4923275 53.1427661,43.407885 51.5159435,43.407885 L48.8046784,43.407885 L48.8046784,35.2737719 C48.8046784,33.6469493 47.7202359,32.5625068 46.0934133,32.5625068 L10.8453782,32.5625068 C9.21855556,32.5625068 8.13411306,33.6469493 8.13411306,35.2737719 L8.13411306,46.1191501 C8.13411306,47.7459727 9.21855556,48.8304152 10.8453782,48.8304152 L13.5566433,48.8304152 L13.5566433,54.2532632 L10.8453782,54.2532632 C9.21855556,54.2532632 8.13411306,55.3377057 8.13411306,56.9645283 L8.13411306,65.0986413 L2.71126511,65.0986413 C1.0844425,65.0986413 -1.42108547e-14,66.1830838 -1.42108547e-14,67.8099064 L-1.42108547e-14,78.6552846 C-1.42108547e-14,80.2821072 1.0844425,81.3665497 2.71126511,81.3665497 L5.42253021,81.3665497 L5.42253021,105.768889 L5.42253021,132.882493 L5.42253021,159.996097 C5.42253021,161.62292 6.50697271,162.707998 8.13379532,162.707998 L56.9384737,162.707998 C58.5652963,162.707998 59.6497388,161.62292 59.6497388,159.996097 L59.6497388,132.882493 L59.6497388,105.768889 L59.6497388,81.3665497 L135.929608,81.3665497 L138.279604,95.4655731 C138.550635,96.5500156 139.635396,97.6347758 140.990869,97.6347758 L143.024398,97.6347758 L130.145809,159.454353 C129.874778,161.081175 130.95922,162.436967 132.315012,162.707998 L132.857392,162.707998 C134.213183,162.707998 135.297626,161.894587 135.568657,160.538795 L146.414035,108.480472 L157.259413,160.538795 C157.530444,161.894587 158.615205,162.707998 159.970678,162.707998 L160.513058,162.707998 C162.139881,162.436967 162.953292,160.810144 162.682261,159.454353 Z M143.70277,5.4485848 L143.70277,37.985037 L73.2070175,37.985037 L73.2070175,5.4485848 L143.70277,5.4485848 Z M73.2070175,43.4075673 L143.70277,43.4075673 L143.70277,48.8304152 L113.877583,48.8304152 L103.032205,48.8304152 L73.2070175,48.8304152 L73.2070175,43.4075673 Z M105.74347,54.2532632 L111.166318,54.2532632 L111.166318,56.9645283 L105.74347,56.9645283 L105.74347,54.2532632 Z M97.8803879,63.2007875 C97.8803879,62.6584074 98.1514191,62.3873762 98.6937992,62.3873762 L103.031887,62.3873762 L113.877583,62.3873762 L118.487019,62.3873762 C119.0294,62.3873762 119.300431,62.6584074 119.300431,63.2007875 L119.300431,65.0986413 L97.8807057,65.0986413 L97.8807057,63.2007875 L97.8803879,63.2007875 Z M13.556961,37.985037 L43.3821481,37.985037 L43.3821481,43.407885 L16.2682261,43.407885 L13.556961,43.407885 L13.556961,37.985037 Z M18.9794912,48.8304152 L46.0930955,48.8304152 L48.8043606,48.8304152 L48.8043606,54.2532632 L46.0930955,54.2532632 L18.9794912,54.2532632 L18.9794912,48.8304152 Z M13.556961,59.6757934 L16.2682261,59.6757934 L43.3818304,59.6757934 L43.3818304,65.0986413 L13.556961,65.0986413 L13.556961,59.6757934 Z M5.42284795,70.5214893 L10.8456959,70.5214893 L46.0934133,70.5214893 L94.8980916,70.5214893 L122.011696,70.5214893 L157.259413,70.5214893 L157.259413,75.9443372 L154.548148,75.9443372 L138.279922,75.9443372 L56.9387914,75.9443372 L8.13411306,75.9443372 L5.42284795,75.9443372 L5.42284795,70.5214893 Z M54.2275263,130.171546 L10.8453782,130.171546 L10.8453782,108.480472 L54.2275263,108.480472 L54.2275263,130.171546 Z M54.2275263,157.28515 L10.8453782,157.28515 L10.8453782,135.594076 L54.2275263,135.594076 L54.2275263,157.28515 Z M54.2275263,103.057942 L10.8453782,103.057942 L10.8453782,81.3668674 L54.2275263,81.3668674 L54.2275263,103.057942 Z M151.294503,81.3668674 L149.396649,92.2122456 L146.956415,92.2122456 C146.929725,92.2077973 146.903988,92.2068441 146.877298,92.2030312 C146.541448,92.1461559 146.198926,92.1467914 145.871973,92.2122456 L143.160708,92.2122456 L141.533885,81.3668674 L151.294503,81.3668674 Z" id="Shape"></path>
            <path d="M29.8251871,94.9238285 L35.2480351,94.9238285 C36.8748577,94.9238285 37.9593002,93.839386 37.9593002,92.2125634 C37.9593002,90.5857407 36.8748577,89.5012982 35.2480351,89.5012982 L29.8251871,89.5012982 C28.1983645,89.5012982 27.113922,90.5857407 27.113922,92.2125634 C27.113922,93.839386 28.1983645,94.9238285 29.8251871,94.9238285 Z" id="Path"></path>
            <path d="M29.8251871,122.037433 L35.2480351,122.037433 C36.8748577,122.037433 37.9593002,120.95299 37.9593002,119.326168 C37.9593002,117.699345 36.8748577,116.614903 35.2480351,116.614903 L29.8251871,116.614903 C28.1983645,116.614903 27.113922,117.699345 27.113922,119.326168 C27.113922,120.95299 28.1983645,122.037433 29.8251871,122.037433 Z" id="Path"></path>
            <path d="M29.8251871,149.151037 L35.2480351,149.151037 C36.8748577,149.151037 37.9593002,148.066595 37.9593002,146.439772 C37.9593002,144.812949 36.8748577,143.728507 35.2480351,143.728507 L29.8251871,143.728507 C28.1983645,143.728507 27.1139219,144.812949 27.1139219,146.439772 C27.1136043,148.066595 28.1983645,149.151037 29.8251871,149.151037 Z" id="Path"></path>
            <path d="M78.6298655,19.0052281 C79.4432768,19.0052281 79.9856569,18.7341969 80.5277193,18.1918168 L85.9505673,12.7689688 C87.0350097,11.6845263 87.0350097,10.0577037 85.9505673,8.97294347 C84.8661248,7.88818324 83.2393021,7.88850097 82.1545419,8.97294347 L76.731694,14.3957914 C75.6472515,15.4802339 75.6472515,17.1070565 76.731694,18.1918168 C77.2740741,18.7341969 77.8164542,19.0052281 78.6298655,19.0052281 L78.6298655,19.0052281 Z" id="Path"></path>
            <path d="M79.4432768,29.0371949 C79.9856569,29.579575 80.5277193,29.8506062 81.3411306,29.8506062 C82.1545419,29.8506062 82.696922,29.579575 83.2389844,29.0371949 L96.7959454,15.4802339 C97.8803879,14.3957914 97.8803879,12.7689688 96.7959454,11.6842086 C95.7115029,10.5994483 94.0846803,10.5997661 92.9999201,11.6842086 L79.4429591,25.2411696 C78.3585166,26.3259298 78.3585166,27.9527524 79.4432768,29.0371949 L79.4432768,29.0371949 Z" id="Path"></path>
        </g>
    </g>
</svg>