<?xml version="1.0" encoding="UTF-8"?>
<svg width="163px" height="163px" viewBox="0 0 163 163" version="1.1" xmlns="http://www.w3.org/2000/svg" xmlns:xlink="http://www.w3.org/1999/xlink">
    <title>Coworking-grey</title>
    <g id="Page-1" stroke="none" stroke-width="1" fill="none" fill-rule="evenodd">
        <g id="Coworking-grey" fill="#545454" fill-rule="nonzero">
            <path d="M160.158173,76.0071587 L141.156383,76.0071587 L141.156383,70.5780298 C141.156383,68.9493234 140.070687,67.863627 138.44198,67.863627 L138.44198,62.434498 C140.070687,62.434498 141.156383,61.3488016 141.156383,59.7200952 C141.156383,49.133504 132.741185,40.7183056 122.154593,40.7183056 C111.568002,40.7183056 103.152804,49.133504 103.152804,59.7200952 C103.152804,61.3488016 104.2385,62.434498 105.867206,62.434498 L105.867206,67.863627 C104.2385,67.863627 103.152804,68.9493234 103.152804,70.5780298 L103.152804,76.0071587 L70.8496964,76.0071587 L70.8496964,59.7197718 C70.8496964,51.8475833 67.0492738,44.5184048 60.5344484,39.903629 C59.448752,39.360619 58.0913889,39.360619 57.2770357,39.903629 C50.7622103,44.5184048 41.804002,44.5184048 35.2891766,39.903629 C34.2034802,39.360619 32.8461171,39.360619 32.0317639,39.903629 C25.5169385,44.5184048 21.7165159,51.8475833 21.7165159,59.7197718 L21.7165159,76.0071587 L2.71440278,76.0071587 C1.08569643,76.0071587 0,77.0928552 0,78.7215615 L0,95.0089484 C0,96.6376548 1.08569643,97.7233512 2.71440278,97.7233512 L2.71440278,154.72872 C2.71440278,159.343496 6.24315873,162.872252 10.8579345,162.872252 L152.014317,162.872252 C156.629093,162.872252 160.157849,159.343496 160.157849,154.72872 L160.157849,97.7236746 C161.786556,97.7236746 162.872252,96.6379782 162.872252,95.0092718 L162.872252,78.7218849 C162.872252,77.0931786 161.786879,76.0071587 160.158173,76.0071587 Z M122.154593,46.1474345 C128.669419,46.1474345 134.098548,50.7622103 135.455911,57.0056925 L108.853276,57.0056925 C110.210639,50.7618869 115.639768,46.1474345 122.154593,46.1474345 L122.154593,46.1474345 Z M111.296335,62.434498 L133.012851,62.434498 L133.012851,67.863627 L111.296335,67.863627 L111.296335,62.434498 Z M108.581933,73.292756 L135.727254,73.292756 L135.727254,76.0071587 L108.581933,76.0071587 L108.581933,73.292756 Z M46.1474345,49.9475337 L50.7622103,54.8336528 L46.1474345,62.7058413 L41.5326587,54.8336528 L46.1474345,49.9475337 Z M27.1453214,59.7200952 C27.1453214,54.2909663 29.588381,49.133504 33.6601468,45.3330813 C35.7668571,46.6121786 38.0407718,47.5351984 40.388748,48.105375 L36.1032063,52.3909167 C35.0175099,53.2052698 35.0175099,54.5626329 35.5601964,55.6483294 L43.7037282,69.2209901 C44.2467381,70.0353433 45.0610913,70.5783532 46.1467877,70.5783532 C47.2324841,70.5783532 48.0468373,70.0353433 48.5898472,69.2209901 L56.733379,55.6483294 C57.2763889,54.5626329 57.0047222,53.2052698 56.190369,52.3909167 L51.9048274,48.105375 C54.2528036,47.5351984 56.5267183,46.6121786 58.6334286,45.3330813 C62.7051944,49.133504 65.148254,54.2909663 65.148254,59.7200952 L65.148254,76.0074821 L27.1453214,76.0074821 L27.1453214,59.7200952 Z M5.42912897,81.4362877 L24.4309187,81.4362877 L67.863627,81.4362877 L105.867206,81.4362877 L138.441657,81.4362877 L157.443446,81.4362877 L157.443446,92.2945456 L5.42912897,92.2945456 L5.42912897,81.4362877 Z M154.729044,135.727254 L138.441657,135.727254 C136.81295,135.727254 135.727254,136.81295 135.727254,138.441657 C135.727254,140.070363 136.81295,141.15606 138.441657,141.15606 L154.729044,141.15606 L154.729044,146.585188 L138.441657,146.585188 C136.81295,146.585188 135.727254,147.670885 135.727254,149.299591 C135.727254,150.928298 136.81295,152.013994 138.441657,152.013994 L154.729044,152.013994 L154.729044,154.728397 C154.729044,156.357103 153.643347,157.4428 152.014641,157.4428 L10.8582579,157.4428 C9.22955159,157.4428 8.14353175,156.357103 8.14353175,154.728397 L8.14353175,152.013994 L24.4312421,152.013994 C26.0599484,152.013994 27.1456448,150.928298 27.1456448,149.299591 C27.1456448,147.670885 26.0599484,146.585188 24.4312421,146.585188 L8.14353175,146.585188 L8.14353175,141.15606 L24.4309187,141.15606 C26.059625,141.15606 27.1453214,140.070363 27.1453214,138.441657 C27.1453214,136.81295 26.059625,135.727254 24.4309187,135.727254 L8.14353175,135.727254 L8.14353175,97.7236746 L154.729044,97.7236746 L154.729044,135.727254 Z" id="Shape"></path>
            <path d="M46.1474345,38.0035794 C56.7340258,38.0035794 65.1492242,29.588381 65.1492242,19.0017897 C65.1492242,8.41519841 56.7340258,0 46.1474345,0 C35.5608433,0 27.1453214,8.41519841 27.1453214,19.0017897 C27.1453214,29.5887044 35.5605198,38.0035794 46.1474345,38.0035794 Z M46.1474345,5.42912897 C53.7482798,5.42912897 59.7200952,11.4012679 59.7200952,19.0017897 C59.7200952,26.6023115 53.7479563,32.5744504 46.1474345,32.5744504 C38.5469127,32.5744504 32.5744504,26.6026349 32.5744504,19.0017897 C32.5744504,11.4009444 38.5465893,5.42912897 46.1474345,5.42912897 Z" id="Shape"></path>
            <path d="M78.7218849,152.014641 C92.2945456,152.014641 103.152804,141.156383 103.152804,127.583722 C103.152804,114.011062 92.2945456,103.152804 78.7218849,103.152804 C65.1492242,103.152804 54.2909663,114.011062 54.2909663,127.583722 C54.2909663,141.156383 65.1492242,152.014641 78.7218849,152.014641 L78.7218849,152.014641 Z M78.7218849,108.581933 C89.3084762,108.581933 97.7236746,116.997131 97.7236746,127.583722 C97.7236746,138.170313 89.3084762,146.585512 78.7218849,146.585512 C68.1352937,146.585512 59.7200952,138.170313 59.7200952,127.583722 C59.7200952,116.997131 68.1349702,108.581933 78.7218849,108.581933 Z" id="Shape"></path>
            <path d="M78.7218849,141.156383 C80.3505913,141.156383 81.4362877,140.070687 81.4362877,138.44198 C81.4362877,136.813274 80.3505913,135.727577 78.7218849,135.727577 C74.1071091,135.727577 70.5783532,132.198821 70.5783532,127.584046 C70.5783532,125.955339 69.4926567,124.869643 67.8639504,124.869643 C66.235244,124.869643 65.1495476,125.955339 65.1495476,127.584046 C65.1492242,135.184244 71.1210397,141.156383 78.7218849,141.156383 Z" id="Path"></path>
            <path d="M78.7218849,119.439867 C83.3366607,119.439867 86.8654167,122.968623 86.8654167,127.583399 C86.8654167,129.212105 87.9511131,130.297802 89.5798194,130.297802 C91.2085258,130.297802 92.2942222,129.212105 92.2942222,127.583399 C92.2942222,119.982554 86.3220833,114.010738 78.7215615,114.010738 C77.0928552,114.010738 76.0071587,115.096435 76.0071587,116.725141 C76.0071587,118.353847 77.0931786,119.439867 78.7218849,119.439867 L78.7218849,119.439867 Z" id="Path"></path>
        </g>
    </g>
</svg>